<?xml version="1.0" standalone="no"?>
<!DOCTYPE svg PUBLIC "-//W3C//DTD SVG 20010904//EN"
 "http://www.w3.org/TR/2001/REC-SVG-20010904/DTD/svg10.dtd">
<svg version="1.0" xmlns="http://www.w3.org/2000/svg"
 width="1080.000000pt" height="1080.000000pt" viewBox="0 0 1080.000000 1080.000000"
 preserveAspectRatio="xMidYMid meet">

<g transform="translate(0.000000,1080.000000) scale(0.100000,-0.100000)"
fill="#000000" stroke="none">
<path d="M5210 10443 c-478 -29 -984 -217 -1380 -514 -366 -274 -609 -567
-806 -974 -125 -259 -193 -476 -236 -750 -18 -115 -22 -185 -22 -395 0 -156 4
-292 12 -350 67 -491 199 -910 433 -1370 202 -400 426 -716 704 -996 392 -394
813 -627 1250 -689 197 -29 462 -14 646 34 414 110 823 374 1163 750 263 291
449 567 635 941 439 884 544 1759 300 2504 -92 279 -247 571 -427 801 -98 125
-397 413 -517 499 -185 131 -376 240 -547 310 -384 157 -791 224 -1208 199z"/>
<path d="M4835 3880 c-696 -47 -1124 -104 -1624 -216 -1586 -355 -2717 -1042
-3084 -1874 -94 -213 -122 -363 -114 -605 4 -123 10 -177 26 -234 100 -343
368 -513 916 -582 66 -8 235 -13 495 -13 457 0 448 0 1790 114 1742 148 2570
148 4320 -1 1188 -100 1268 -106 1660 -114 543 -12 868 27 1123 135 212 91
365 262 423 475 26 92 30 327 9 461 -76 485 -400 934 -966 1334 -304 216 -767
452 -1189 605 -718 262 -1478 419 -2390 496 -267 22 -1163 35 -1395 19z"/>
</g>
</svg>
